<?xml version="1.0"?>
<svg xmlns="http://www.w3.org/2000/svg" height="512px" viewBox="0 0 512 512" width="512px" class=""><g><g><g><circle cx="256" cy="256" fill="#ffda44" r="240" data-original="#FFDA44" class="" style="fill:#17A2B8" data-old_color="#ffda44"/><path d="m184 184h144v144h-144z" fill="#e0e0e2" data-original="#E0E0E2" class=""/></g><g><path d="m431.36 80.64a248 248 0 1 0 -350.72 350.72 248 248 0 1 0 350.72-350.72zm-11.31 339.41a232 232 0 0 1 -328.1-328.1 232 232 0 0 1 328.1 328.1z" data-original="#000000" class="active-path" style="fill:#000000" data-old_color="#000000"/><path d="m328 336h-144a8 8 0 0 1 -8-8v-144a8 8 0 0 1 8-8h144a8 8 0 0 1 8 8v144a8 8 0 0 1 -8 8zm-136-16h128v-128h-128z" data-original="#000000" class="active-path" style="fill:#000000" data-old_color="#000000"/><path d="m176 464.7a7.973 7.973 0 0 1 -2.962-.571 224.076 224.076 0 0 1 -141.038-208.129 8 8 0 0 1 16 0 208.074 208.074 0 0 0 130.964 193.271 8 8 0 0 1 -2.964 15.429z" data-original="#000000" class="active-path" style="fill:#000000" data-old_color="#000000"/><path d="m216.009 476.305a8.072 8.072 0 0 1 -1.482-.138c-5.557-1.041-11.141-2.309-16.6-3.77a8 8 0 1 1 4.138-15.455c5.062 1.355 10.245 2.533 15.4 3.5a8 8 0 0 1 -1.464 15.865z" data-original="#000000" class="active-path" style="fill:#000000" data-old_color="#000000"/></g></g></g> </svg>
