<svg id="birds" enable-background="new 0 0 300 300" height="512" viewBox="0 0 300 300" width="512" xmlns="http://www.w3.org/2000/svg"><g><path d="m210.008 99.225c2.211 0 4-1.789 4-4v-8c0-2.211-1.789-4-4-4s-4 1.789-4 4v8c0 2.211 1.789 4 4 4z"/><path d="m210.008 107.225c-2.211 0-4 1.789-4 4v8c0 2.211 1.789 4 4 4s4-1.789 4-4v-8c0-2.211-1.789-4-4-4z"/><path d="m202.008 99.225h-8c-2.211 0-4 1.789-4 4s1.789 4 4 4h8c2.211 0 4-1.789 4-4s-1.789-4-4-4z"/><path d="m230.008 103.225c0-2.211-1.789-4-4-4h-8c-2.211 0-4 1.789-4 4s1.789 4 4 4h8c2.211 0 4-1.789 4-4z"/><circle cx="225.735" cy="66.936" r="4.276"/><circle cx="229.735" cy="158.936" r="4.276"/><circle cx="160.008" cy="49.225" r="4.821"/><path d="m150.008 140.819v-17.595c0-.246-.098-.46-.14-.694 16.375-5.87 28.14-21.468 28.14-39.794v-13.242l18.051-10.785c1.305-.781 2.059-2.234 1.938-3.75s-1.09-2.832-2.504-3.398l-17.564-7.025c-.413-7.194-5.35-13.436-12.361-15.361l-1.895-.52c-7.211-1.977-14.945.441-19.707 6.164-9.555 11.48-28.91 34.75-45.828 55.25-33.059 40.055-33.059 40.055-31.75 42.848.66 1.414 2.09 2.309 3.633 2.309.105 0 .215-.004.32-.012.953-.078 23.434-1.922 34.621-5.641l13.59-4.52h7.457v14.172c0 .283.105.53.161.797-31.719 4.737-56.161 32.306-56.161 65.602 0 36.613 29.523 66.402 65.816 66.402s65.82-29.789 65.82-66.402c0-31.698-22.146-58.239-51.637-64.805zm-8 74.406h-6c-1.102 0-2-.898-2-2s.898-2 2-2h12c5.516 0 10-4.484 10-10s-4.484-10-10-10h-16c-1.102 0-2-.898-2-2s.898-2 2-2h14c2.211 0 4-1.789 4-4 0-2.156 1.754-3.91 3.93-3.91 2.211 0 4-1.789 4-4 0-2.404 6.093-7.907 16.295-13.222 10.32 9.299 17.339 22.235 19 36.827-.707.232-1.017.3-.972.305h-22.254c-2.211 0-4 1.789-4 4 0 2.207-1.793 4-4 4-2.211 0-4 1.789-4 4v18c0 3.309-2.691 6-6 6s-6-2.691-6-6v-10c.001-2.211-1.788-4-3.999-4zm-6.183-68c2.5 0 4.946.215 7.364.528-1.752 1.338-3.866 2.167-6.161 2.167-2.454 0-4.746-.896-6.546-2.422 1.762-.164 3.539-.273 5.343-.273zm42.183-87.05v-6.991l7.008 2.803zm-75.57 61.804c-6.062 2.016-16.289 3.477-23.637 4.34 10.574-13.152 36.125-44.109 71.312-86.383 2.117-2.543 5.258-3.961 8.5-3.961.98 0 1.969.129 2.941.398l1.895.516c3.863 1.062 6.559 4.598 6.559 8.602v37.246c0 18.922-15.445 34.316-34.43 34.316h-3.281c10.51-7.506 17.876-16.63 21.906-27.281.781-2.066-.262-4.375-2.328-5.156-2.051-.773-4.375.258-5.156 2.328-4.758 12.582-15.094 22.852-30.711 30.52-.004.002-.007.006-.011.009zm31.57 17.246v-14.172h1.57c2.191 0 4.327-.218 6.43-.539v15.027c-2.038-.193-4.097-.316-6.184-.316-.62 0-1.22.076-1.835.094.001-.034.019-.061.019-.094zm-36 22.327v18.63c0 3.883-3.562 7.043-7.938 7.043h-9.077c3.316-10.05 9.261-18.875 17.015-25.673zm-19.719 49.673h12.555c1.715 0 3.164 1.828 3.164 3.996v7.672c0 1.012-.312 1.988-.871 2.734l-7.126 9.496c-4.165-7.148-6.901-15.235-7.722-23.898zm49.674 52.196c1.704-3.383 5.163-5.661 9.064-5.661 3.772 0 7.134 2.106 8.899 5.314-3.287.589-6.651.951-10.103.951-2.671 0-5.282-.248-7.86-.604zm25.863-2.332c-2.772-6.765-9.346-11.33-16.798-11.33-7.686 0-14.45 4.906-17.047 11.981-11.657-3.364-21.815-10.312-29.218-19.619l8.777-11.699c1.594-2.129 2.469-4.801 2.469-7.531v-7.672c0-6.613-5.008-11.996-11.164-11.996h-12.717c.11-2.718.384-5.39.852-8h11.091c8.789 0 15.938-6.75 15.938-15.043v-24.414c0-.026-.015-.048-.015-.074 4.759-2.912 9.953-5.139 15.475-6.573 3.274 5.42 9.124 8.799 15.56 8.799 6.213 0 11.877-3.133 15.231-8.258 5.396 1.619 10.456 4.015 15.069 7.058-7.28 4.096-14.462 9.35-16.688 15.052-3.691 1.059-6.656 3.859-7.941 7.453h-10.691c-5.516 0-10 4.484-10 10s4.484 10 10 10h16c1.102 0 2 .898 2 2s-.898 2-2 2h-12c-5.516 0-10 4.484-10 10s4.484 10 10 10h2v6c0 7.719 6.281 14 14 14s14-6.281 14-14v-14.684c3.406-1.207 6.109-3.91 7.316-7.316h18.961c.323 0 .754-.045 1.286-.141-.622 25.212-17.099 46.488-39.746 54.007z"/></g></svg>